<?xml version="1.0" encoding="utf-8"?>
<svg xmlns="http://www.w3.org/2000/svg" xmlns:xlink="http://www.w3.org/1999/xlink" style="margin: auto; background: none; display: block; shape-rendering: auto;" width="118px" height="118px" viewBox="0 0 100 100" preserveAspectRatio="xMidYMid">
<g transform="translate(50 50)">
<g>
<animateTransform attributeName="transform" type="rotate" values="0;60" keyTimes="0;1" dur="1.3513513513513513s" repeatCount="indefinite"></animateTransform><path d="M20.266968199511243 -5.5 L29.266968199511243 -5.5 L29.266968199511243 5.5 L20.266968199511243 5.5 A21 21 0 0 1 14.896623820570033 14.8017093184681 L14.896623820570033 14.8017093184681 L19.396623820570035 22.595937952528047 L9.870344378941212 28.095937952528047 L5.370344378941212 20.3017093184681 A21 21 0 0 1 -5.370344378941205 20.301709318468102 L-5.370344378941205 20.301709318468102 L-9.870344378941201 28.09593795252805 L-19.396623820570028 22.595937952528054 L-14.896623820570031 14.801709318468106 A21 21 0 0 1 -20.266968199511243 5.500000000000002 L-20.266968199511243 5.500000000000002 L-29.266968199511243 5.5000000000000036 L-29.266968199511243 -5.499999999999994 L-20.266968199511243 -5.499999999999996 A21 21 0 0 1 -14.89662382057004 -14.801709318468095 L-14.89662382057004 -14.801709318468095 L-19.396623820570042 -22.59593795252804 L-9.870344378941212 -28.095937952528047 L-5.370344378941211 -20.301709318468102 A21 21 0 0 1 5.370344378941185 -20.30170931846811 L5.370344378941185 -20.30170931846811 L9.87034437894118 -28.09593795252806 L19.396623820570024 -22.59593795252806 L14.89662382057003 -14.801709318468108 A21 21 0 0 1 20.26696819951124 -5.500000000000013 M0 -43A43 43 0 1 0 0 43 A43 43 0 1 0 0 -43" fill="#70bfff"></path></g></g>
<!-- [ldio] generated by https://loading.io/ --></svg>